<svg id="Warstwa_1" data-name="Warstwa 1" xmlns="http://www.w3.org/2000/svg" viewBox="0 0 1581.83 1268.18"><defs><style>.cls-1,.cls-5{fill:#fff;}.cls-1,.cls-2,.cls-3,.cls-4{stroke:#000;stroke-miterlimit:10;}.cls-1,.cls-2,.cls-3{stroke-width:29.49px;}.cls-2{fill:#666;}.cls-3{fill:none;}.cls-4{stroke-width:29px;}</style></defs><path class="cls-1" d="M591,976.84c-2.89.25-5.71.59-8.37,1.09a38.23,38.23,0,0,0,3.67,1.86Q588.53,978.32,591,976.84Z" transform="translate(-14.62 -10.5)"/><path class="cls-1" d="M695.1,966.24l-4.34,2.83.72,2.79a65.53,65.53,0,0,1,7.38,4.35,10.45,10.45,0,0,1,3.52-5.79C700,969,697.55,967.58,695.1,966.24Z" transform="translate(-14.62 -10.5)"/><path class="cls-1" d="M126.81,566.69c-32.45,32.46-44.7,68.91-62.23,119.44-6,17.43-26.57,45-33.45,75.38,17.89,13.17,26.54,42.27,60,49.15l55.26,11.81s53.56,3.8,69.08-.49c11.35-3.13,88.48-39.15,122.76-74.13,55.56-56.71,78-152.36,20-210.39-46.46-46.46-134.63-34.55-187.86-5.11C160.69,537.68,144.34,549.17,126.81,566.69Z" transform="translate(-14.62 -10.5)"/><path class="cls-1" d="M1484.25,566.69c32.46,32.46,44.7,68.91,62.23,119.44,6,17.43,26.57,45,33.45,75.38-17.89,13.17-26.54,42.27-60,49.15l-55.25,11.81s-53.56,3.8-69.09-.49c-11.34-3.13-88.48-39.15-122.76-74.13-55.56-56.71-78-152.36-20-210.39,46.46-46.46,134.63-34.55,187.86-5.11C1450.37,537.68,1466.72,549.17,1484.25,566.69Z" transform="translate(-14.62 -10.5)"/><path class="cls-1" d="M1123,333.5C1031.94,256.64,925,220,788.79,220c-119.59,0-203.55,6.93-290.23,67.83C382.33,369.45,281.92,524.61,281.92,665.58c0,160.72,96.81,301.54,242,379.93,2-2.06,4.1-4,6.23-6-3.35-3.24-4.88-8.92-1.2-13.6a101.3,101.3,0,0,1,10.26-11c-7.42-4.17-6.23-17.39,4.12-17.21,5.68.09,11.39.11,17.13.11q2.16-1.57,4.31-3.1c.8-1.09,1.64-2.15,2.52-3.16a8.21,8.21,0,0,1,1.54-1.38A36.6,36.6,0,0,1,558,975.9c-1.5-3.56,1-8.75,4.23-10.41a67.23,67.23,0,0,1,17.94-6,8.84,8.84,0,0,1,3.93-1.86,255.75,255.75,0,0,0,34.76-10.34c0-.37-.05-.75-.08-1.12-3.59-3.28-3.7-9.71-.35-13.47.32-7.64,12.13-12.53,17.36-4.26.3.48.61,1,.92,1.42,1.61.08,3.21.18,4.81.32a9.26,9.26,0,0,1,1.18.13q3.43.33,6.82.83c1.65-5.33,7.85-7.08,12.52-5.25-.07-2.19-.15-4.37-.17-6.56a8.94,8.94,0,0,1,1.3-4.88c-.07-.33-.16-.65-.2-1a9.53,9.53,0,0,0-.42-1.24,11.38,11.38,0,0,1-.68-3.71,9.31,9.31,0,0,1,2.7-6.52,7.15,7.15,0,0,1,1.37-1.15c-.71-6-1.45-11.95-2.1-17.89-1.3-11.79,17.15-11.66,18.43,0,1.37,12.51,2.92,25,3.86,37.39a235.57,235.57,0,0,1,39.52-10.89c11.62-2,16.57,15.75,4.9,17.78-15,2.6-29.41,7.09-43.55,12.36,0,.76,0,1.51,0,2.27l2.76,1.2q7.31-2.37,14.73-4.53c2-1.22,4.12-2.43,6.21-3.57,10.33-5.68,19.54,9.94,9.53,15.77a8.51,8.51,0,0,1-5.38,4l-1.9.54c22.93,14,43.71,32.24,62,50.9,8.31,8.49-4.72,21.52-13,13-13.42-13.7-28.25-27.3-44.38-38.89a16.91,16.91,0,0,1-5.17,14.34,20.64,20.64,0,0,1,.45,4.48,35,35,0,0,1,6.25,5.6c12.18,14,7.15,29.78-3.49,43.17,2,5.51,2.1,11.86-.66,19.09a37.89,37.89,0,0,1-1.85,4,322.6,322.6,0,0,1-8.12,34,578.15,578.15,0,0,0,83.88,6.11c26.64,0,1.37,8.4,15,6.76,16.55-2,28.34,7.81,15.73,18.68-97.79,84.31,64.6,21.72,92,20.64,142.87-5.61,69.34-80.23,94.34-92.32,300.67-145.49,289.84-399.37,289.84-399.37C1295.57,480.21,1150.17,356.42,1123,333.5Z" transform="translate(-14.62 -10.5)"/><ellipse cx="566.27" cy="624.55" rx="53.08" ry="81.84"/><ellipse cx="982.08" cy="624.55" rx="53.08" ry="81.84"/><path class="cls-2" d="M498.56,287.79S354.74,259,331.93,250.93c-25.06-8.85-70.77-87-63.4-144.5,2.67-20.82,5.67-38,8.42-51.45,4.85-23.71,1.66-28.67,1.66-28.67s-3.81-3.75-18.77,2.82c-30.35,13.35-76.82,39.76-79.78,77.3-4.43,56-2.95,171,10.32,207.9s57.51,144.51,81.1,160.73,48,31.33,48,31.33l80.28-122.75Z" transform="translate(-14.62 -10.5)"/><path class="cls-2" d="M1078.64,287.79s143.82-28.81,166.62-36.86c25.07-8.85,70.78-87,63.41-144.5-2.67-20.82-5.68-38-8.43-51.45-4.84-23.71-1.65-28.67-1.65-28.67s3.81-3.75,18.76,2.82c30.36,13.35,76.83,39.76,79.79,77.3,4.42,56,2.95,171-10.32,207.9s-57.51,144.51-81.1,160.73-48,31.33-48,31.33l-80.28-122.75Z" transform="translate(-14.62 -10.5)"/><path class="cls-2" d="M788.79,834.71c-184.59,0-334.22,96.08-334.22,214.61s149.63,214.61,334.22,214.61S1123,1167.85,1123,1049.32,973.38,834.71,788.79,834.71ZM707.45,1077c-18.31,48.58-66,75.57-106.62,60.29s-58.64-67.07-40.34-115.65,66-75.57,106.61-60.29c15.22,5.73,27.27,16.6,35.43,30.5C716.12,1015,718.88,1046.63,707.45,1077Zm236.11,62.22c-43.59,15.56-93.3-12.08-111-61.73S835.8,975,879.39,959.42s93.3,12.08,111,61.73S987.15,1123.66,943.56,1139.22Z" transform="translate(-14.62 -10.5)"/><path class="cls-3" d="M1310.45,527.26c8.16-22.75-319.58-68.07-446.23-5.39-31.21,15.44-51.67,58.72-75.4,58.86-28.53.17-40.89-65-116.42-73.43-46.86-5.21-267.56-21.22-396.87,22.74" transform="translate(-14.62 -10.5)"/><path class="cls-4" d="M1352.62,583.72c0,50.37-26.35,101.07-46.27,117.93-64.73,54.8-161.75,54.14-217.65,54.18-55.26,0-162.17,2.52-226.48-50.18-20.46-16.77-38.48-70.19-37.4-121.93,1.79-85.41,142-67.67,263.88-67.67C1234.45,516.05,1352.62,494.25,1352.62,583.72Z" transform="translate(-14.62 -10.5)"/><path class="cls-4" d="M750.81,585.7c0,50.36-26.35,101.06-46.27,117.93-64.73,54.79-161.75,54.14-217.65,54.17-55.26,0-162.18,2.52-226.48-50.17-20.47-16.77-38.48-70.19-37.4-121.93C224.79,500.29,365,518,486.89,518,632.63,518,750.81,496.23,750.81,585.7Z" transform="translate(-14.62 -10.5)"/><path class="cls-5" d="M1284.53,692.33c34-28.07,40.09-74.08,40.8-80,2-16.87,4.27-35.72-6.8-54-8.54-14.1-21-21.21-26-24-3.3-1.84-11.64-6.14-48.8-10.8-22-2.76-36.74-4.6-37.6-1.6-1.31,4.58,32.86,8.73,53.6,36,15.89,20.88,16.24,45.27,16.4,56,.1,6.92,0,42.66-24.4,71.2-16,18.7-32.84,23.17-31.2,27.2,2.06,5.07,30.4,1.92,54-12.8A92.36,92.36,0,0,0,1284.53,692.33Z" transform="translate(-14.62 -10.5)"/><path class="cls-5" d="M669.39,692.33c34-28.07,40.1-74.08,40.8-80,2-16.87,4.27-35.72-6.8-54-8.53-14.1-21-21.21-26-24-3.3-1.84-11.64-6.14-48.8-10.8-22-2.76-36.74-4.6-37.6-1.6-1.3,4.58,32.86,8.73,53.6,36,15.89,20.88,16.25,45.27,16.4,56,.11,6.92,0,42.66-24.4,71.2-16,18.7-32.83,23.17-31.2,27.2,2.07,5.07,30.41,1.92,54-12.8A92.36,92.36,0,0,0,669.39,692.33Z" transform="translate(-14.62 -10.5)"/></svg>