<?xml version="1.0" encoding="utf-8"?>
<!-- Generator: Adobe Illustrator 25.0.0, SVG Export Plug-In . SVG Version: 6.00 Build 0)  -->
<svg version="1.1" id="Warstwa_1" xmlns="http://www.w3.org/2000/svg" xmlns:xlink="http://www.w3.org/1999/xlink" x="0px" y="0px"
	 viewBox="0 0 1581.8 1622.4" style="enable-background:new 0 0 1581.8 1622.4;" xml:space="preserve">
<style type="text/css">
	.st0{fill:#FFFFFF;stroke:#000000;stroke-width:31.4654;stroke-miterlimit:10;}
	.st1{fill:#FFFFFF;stroke:#FFFFFF;stroke-width:35.0789;stroke-miterlimit:10;}
	.st2{fill:none;stroke:#FFFFFF;stroke-width:42.5018;stroke-miterlimit:10;}
	.st3{fill:#FFFFFF;stroke:#FFFFFF;stroke-width:31.4654;stroke-miterlimit:10;}
	.st4{fill:none;stroke:#000000;stroke-width:29.4906;stroke-miterlimit:10;}
	.st5{stroke:#000000;stroke-width:29;stroke-miterlimit:10;}
	.st6{fill:#FFFFFF;}
</style>
<path class="st0" d="M576.4,1212.4c-2.9,0.3-5.7,0.7-8.4,1.2c1.2,0.8,2.4,1.5,3.7,2.1C573.2,1214.6,574.7,1213.5,576.4,1212.4z"/>
<path class="st0" d="M680.5,1200.3l-4.3,3.2l0.7,3.2c2.6,1.5,5,3.1,7.4,5c0.5-2.6,1.7-4.9,3.5-6.6
	C685.4,1203.4,682.9,1201.8,680.5,1200.3z"/>
<path class="st0" d="M112.2,745.4c-32.4,37-44.7,78.5-62.2,136c-6,19.8-26.6,51.2-33.5,85.8c17.9,15,26.5,48.1,60,56l55.3,13.4
	c0,0,53.6,4.3,69.1-0.6c11.4-3.6,88.5-44.6,122.8-84.4c55.6-64.6,78-173.5,20-239.5c-46.5-52.9-134.6-39.3-187.9-5.8
	C146.1,712.4,129.7,725.5,112.2,745.4z"/>
<path class="st0" d="M1469.6,745.4c32.5,37,44.7,78.5,62.2,136c6,19.8,26.6,51.2,33.4,85.8c-17.9,15-26.5,48.1-60,56l-55.3,13.4
	c0,0-53.6,4.3-69.1-0.6c-11.3-3.6-88.5-44.6-122.8-84.4c-55.6-64.6-78-173.5-20-239.5c46.5-52.9,134.6-39.3,187.9-5.8
	C1435.8,712.4,1452.1,725.5,1469.6,745.4z"/>
<path class="st0" d="M277.7,764.9c-6.8,31.2-10.4,62.4-10.4,93.1c0,183,96.8,343.3,242,432.5c2-2.3,4.1-4.6,6.2-6.8
	c-3.3-3.7-4.9-10.2-1.2-15.5c3.1-4.5,6.6-8.6,10.3-12.5c-7.4-4.7-6.2-19.8,4.1-19.6c5.7,0.1,11.4,0.1,17.1,0.1
	c1.4-1.2,2.9-2.4,4.3-3.5c0.8-1.2,1.6-2.4,2.5-3.6c0.5-0.6,1-1.1,1.5-1.6c-4.7-4.3-8.5-9.9-10.8-16.2c-1.5-4.1,1-10,4.2-11.9
	c5.7-3.2,11.7-5.5,17.9-6.8c1.1-1.1,2.5-1.8,3.9-2.1c11.8-3,23.4-6.9,34.8-11.8c0-0.4,0-0.9-0.1-1.3c-3.6-3.7-3.7-11.1-0.3-15.3
	c0.3-8.7,12.1-14.3,17.4-4.8c0.3,0.5,0.6,1.1,0.9,1.6c1.6,0.1,3.2,0.2,4.8,0.4c0.4,0,0.8,0.1,1.2,0.1c2.3,0.3,4.6,0.6,6.8,0.9
	c1.7-6.1,7.8-8.1,12.5-6c-0.1-2.5-0.2-5-0.2-7.5c0-2,0.4-3.9,1.3-5.6c-0.1-0.4-0.2-0.7-0.2-1.1c-0.1-0.5-0.3-1-0.4-1.4
	c-0.4-1.4-0.7-2.8-0.7-4.2c0-2.8,1-5.4,2.7-7.4c0.4-0.5,0.9-0.9,1.4-1.3c-0.7-6.8-1.5-13.6-2.1-20.4c-1.3-13.4,17.2-13.3,18.4,0
	c1.4,14.2,2.9,28.5,3.9,42.6c12.8-5.4,26.1-9.6,39.5-12.4c11.6-2.3,16.6,17.9,4.9,20.2c-15,3-29.4,8.1-43.5,14.1c0,0.9,0,1.7,0,2.6
	l2.8,1.4c4.9-1.8,9.8-3.5,14.7-5.2c2-1.4,4.1-2.8,6.2-4.1c10.3-6.5,19.5,11.3,9.5,18c-1.2,2.3-3.1,3.9-5.4,4.6l-1.9,0.6
	c22.9,15.9,43.7,36.7,62,57.9c8.3,9.7-4.7,24.5-13,14.8c-13.4-15.6-28.3-31.1-44.4-44.3c0.7,6.1-1.3,12.1-5.2,16.3
	c0.3,1.7,0.5,3.4,0.5,5.1c2.3,1.8,4.4,4,6.3,6.4c12.2,15.9,7.2,33.9-3.5,49.1c2,6.3,2.1,13.5-0.7,21.7c-0.5,1.6-1.2,3.1-1.8,4.6
	c-2.1,13.1-4.8,26-8.1,38.7c27.8,4.6,55.8,7,83.9,7c26.6,0,1.4,9.6,15,7.7c16.5-2.3,28.3,8.9,15.7,21.3c-97.8,96,64.6,24.7,92,23.5
	c142.9-6.4,69.3-91.3,94.3-105.1c300.7-165.6,289.8-454.7,289.8-454.7C1281,647,1135.6,506,1108.4,479.9
	c-91.1-87.5-198-129.2-334.2-129.2c-119.6,0-203.5,7.9-290.2,77.2c-92.8,74.2-175.5,201.7-205.1,331.8"/>
<path class="st0" d="M278.9,759.7c-0.4,1.7-0.8,3.4-1.1,5.1"/>
<ellipse cx="576.4" cy="823.2" rx="68.3" ry="119.8"/>
<path class="st0" d="M483.9,427.9c0,0-143.8-32.8-166.6-42c-25.1-10.1-70.8-99-63.4-164.5c2.7-23.7,5.7-43.3,8.4-58.6
	c4.9-27,1.7-32.6,1.7-32.6s-3.8-4.3-18.8,3.2c-30.4,15.2-76.8,45.3-79.8,88c-4.4,63.8-2.9,194.7,10.3,236.7s57.5,164.5,81.1,183
	s48,35.7,48,35.7L385.1,537L483.9,427.9z"/>
<path class="st0" d="M1064,427.9c0,0,143.8-32.8,166.6-42c25.1-10.1,70.8-99,63.4-164.5c-2.7-23.7-5.7-43.3-8.4-58.6
	c-4.8-27-1.7-32.6-1.7-32.6s3.8-4.3,18.8,3.2c30.4,15.2,76.8,45.3,79.8,88c4.4,63.8,2.9,194.7-10.3,236.7s-57.5,164.5-81.1,183
	s-48,35.7-48,35.7L1162.8,537L1064,427.9z"/>
<path class="st0" d="M774.2,1050.6c-184.6,0-334.2,109.4-334.2,244.3s149.6,244.3,334.2,244.3s334.2-109.4,334.2-244.3
	S958.8,1050.6,774.2,1050.6z"/>
<ellipse cx="984.9" cy="823.2" rx="68.3" ry="119.8"/>
<ellipse transform="matrix(0.1688 -0.9856 0.9856 0.1688 -599.2115 964.8451)" class="st1" cx="272.5" cy="837.7" rx="123.6" ry="117.1"/>
<ellipse transform="matrix(0.9444 -0.3288 0.3288 0.9444 -199.009 478.2547)" class="st1" cx="1314.5" cy="827.5" rx="114.4" ry="126.5"/>
<ellipse transform="matrix(0.9027 -0.4302 0.4302 0.9027 -164.5965 549.545)" class="st2" cx="1132.9" cy="638.7" rx="79.1" ry="187.1"/>
<ellipse transform="matrix(0.4302 -0.9027 0.9027 0.4302 -336.7911 739.3542)" class="st2" cx="417.3" cy="636.5" rx="187.1" ry="79.1"/>
<ellipse class="st3" cx="774.2" cy="1167.9" rx="319.2" ry="180.3"/>
<g>
	<path class="st4" d="M1296.8,741c8.2-22.7-319.6-68.1-446.2-5.4c-31.2,15.4-51.7,58.7-75.4,58.9c-28.5,0.2-40.9-65-116.4-73.4
		c-46.9-5.2-267.6-21.2-396.9,22.7"/>
	<path class="st5" d="M1339,797.5c0,50.4-26.4,101.1-46.3,117.9c-64.7,54.8-161.7,54.1-217.6,54.2c-55.3,0-162.2,2.5-226.5-50.2
		c-20.5-16.8-38.5-70.2-37.4-121.9c1.8-85.4,142-67.7,263.9-67.7C1220.8,729.8,1339,708,1339,797.5z"/>
	<path class="st5" d="M737.2,799.5c0,50.4-26.4,101.1-46.3,117.9c-64.7,54.8-161.7,54.1-217.6,54.2c-55.3,0-162.2,2.5-226.5-50.2
		c-20.5-16.8-38.5-70.2-37.4-121.9c1.8-85.4,142-67.7,263.9-67.7C619,731.8,737.2,710,737.2,799.5z"/>
</g>
<path class="st6" d="M1245.9,919.1c54-30.2,63.7-79.7,64.9-86.1c3.2-18.1,6.8-38.4-10.8-58.1c-13.6-15.2-33.3-22.8-41.3-25.8
	c-5.3-2-18.5-6.6-77.6-11.6c-35-3-58.4-5-59.8-1.7c-2.1,4.9,52.2,9.4,85.2,38.7c25.2,22.5,25.8,48.7,26.1,60.2
	c0.2,7.4,0,45.9-38.8,76.6c-25.4,20.1-52.2,24.9-49.6,29.3c3.3,5.5,48.3,2.1,85.8-13.8C1234.2,925.1,1239.8,922.5,1245.9,919.1z"/>
<path class="st6" d="M632.8,919.1c54-30.2,63.7-79.7,64.9-86.1c3.2-18.1,6.8-38.4-10.8-58.1c-13.6-15.2-33.3-22.8-41.3-25.8
	c-5.3-2-18.5-6.6-77.6-11.6c-35-3-58.4-5-59.8-1.7c-2.1,4.9,52.2,9.4,85.2,38.7c25.2,22.5,25.8,48.7,26.1,60.2
	c0.2,7.4,0,45.9-38.8,76.6c-25.4,20.1-52.2,24.9-49.6,29.3c3.3,5.5,48.3,2.1,85.8-13.8C621.1,925.1,626.7,922.5,632.8,919.1z"/>
</svg>
