<?xml version="1.0" encoding="utf-8"?>
<!-- Generator: Adobe Illustrator 25.0.0, SVG Export Plug-In . SVG Version: 6.00 Build 0)  -->
<svg version="1.1" id="Warstwa_1" xmlns="http://www.w3.org/2000/svg" xmlns:xlink="http://www.w3.org/1999/xlink" x="0px" y="0px"
	 viewBox="0 0 184.1 184.3" style="enable-background:new 0 0 184.1 184.3;" xml:space="preserve">
<style type="text/css">
	.st0{fill:#FFFFFF;}
</style>
<path id="Icon_awesome-info-circle" class="st0" d="M92.1,0C41.2,0,0,41.2,0,92.1s41.2,92.1,92.1,92.1s92.1-41.2,92.1-92.1l0,0
	C184.3,41.3,143,0,92.1,0z M92.1,40.9c8.6,0,15.6,7,15.6,15.6s-7,15.6-15.6,15.6s-15.6-7-15.6-15.6l0,0
	C76.5,47.9,83.5,40.9,92.1,40.9L92.1,40.9L92.1,40.9z M112.9,135.2c0,2.5-2,4.5-4.5,4.5l0,0H75.8c-2.5,0-4.5-2-4.5-4.5l0,0v-8.9
	c0-2.5,2-4.5,4.5-4.5l0,0h4.5V98.1h-4.5c-2.5,0-4.5-2-4.5-4.5l0,0v-8.9c0-2.5,2-4.5,4.5-4.5l0,0h23.8c2.5,0,4.5,2,4.5,4.5l0,0v37.1
	h4.5c2.5,0,4.5,2,4.5,4.5l0,0V135.2z"/>
</svg>
