<?xml version="1.0" encoding="utf-8"?>
<!-- Generator: Adobe Illustrator 25.0.0, SVG Export Plug-In . SVG Version: 6.00 Build 0)  -->
<svg version="1.1" id="Warstwa_1" xmlns="http://www.w3.org/2000/svg" xmlns:xlink="http://www.w3.org/1999/xlink" x="0px" y="0px"
	 viewBox="0 0 184.1 210" style="enable-background:new 0 0 184.1 210;" xml:space="preserve">
<style type="text/css">
	.st0{fill:#FFFFFF;}
</style>
<path id="Icon_awesome-calculator" class="st0" d="M164.1,0H19.7C8.9,0.3,0.3,8.9,0,19.7v170.6c0.3,10.8,8.9,19.4,19.7,19.7h144.4
	c10.8-0.3,19.4-8.9,19.7-19.7V19.7C183.5,8.9,174.8,0.3,164.1,0z M52.5,178.5c-0.2,2.8-2.4,5.1-5.2,5.2H31.5
	c-2.8-0.2-5.1-2.4-5.2-5.2v-15.7c0.2-2.8,2.4-5.1,5.2-5.2h15.7c2.8,0.2,5.1,2.4,5.2,5.2L52.5,178.5z M52.5,126
	c-0.2,2.8-2.4,5.1-5.2,5.2H31.5c-2.8-0.2-5.1-2.4-5.2-5.2v-15.7c0.2-2.8,2.4-5.1,5.2-5.2h15.7c2.8,0.2,5.1,2.4,5.2,5.2L52.5,126z
	 M105,178.5c-0.2,2.8-2.4,5.1-5.2,5.2H84c-2.8-0.2-5.1-2.4-5.3-5.2v-15.7c0.2-2.8,2.4-5.1,5.2-5.2h15.7c2.8,0.2,5.1,2.4,5.2,5.2
	L105,178.5z M105,126c-0.2,2.8-2.4,5.1-5.2,5.2H84c-2.8-0.2-5.1-2.4-5.3-5.2v-15.7c0.2-2.8,2.4-5.1,5.2-5.2h15.7
	c2.8,0.2,5.1,2.4,5.2,5.2L105,126z M157.5,178.5c-0.2,2.8-2.4,5.1-5.2,5.2h-15.7c-2.8-0.2-5.1-2.4-5.2-5.2v-68.2
	c0.2-2.8,2.4-5.1,5.2-5.2h15.7c2.8,0.2,5.1,2.4,5.2,5.2C157.5,110.2,157.5,178.5,157.5,178.5z M157.5,73.5c-0.2,2.8-2.4,5-5.2,5.2
	H31.5c-2.8-0.2-5.1-2.4-5.2-5.2v-42c0.2-2.8,2.4-5.1,5.2-5.2h120.8c2.8,0.2,5.1,2.4,5.2,5.2L157.5,73.5L157.5,73.5z"/>
</svg>
