<?xml version="1.0" encoding="utf-8"?>
<!-- Generator: Adobe Illustrator 25.0.0, SVG Export Plug-In . SVG Version: 6.00 Build 0)  -->
<svg version="1.1" id="Warstwa_1" xmlns="http://www.w3.org/2000/svg" xmlns:xlink="http://www.w3.org/1999/xlink" x="0px" y="0px"
	 viewBox="0 0 184.1 218.1" style="enable-background:new 0 0 184.1 218.1;" xml:space="preserve">
<style type="text/css">
	.st0{fill:#FFFFFF;}
</style>
<path id="Icon_awesome-book" class="st0" d="M184.1,153.3V10.2c0-5.6-4.4-10.2-9.8-10.2c0,0,0,0,0,0H39.5C17.7,0,0,18.3,0,40.9
	v136.3c0,22.6,17.7,40.9,39.5,40.9l0,0h134.8c5.4,0,9.9-4.5,9.9-10.2c0,0,0,0,0-0.1V201c0-3.1-1.4-6-3.7-8
	c-1.7-10.5-1.7-21.3,0-31.8C182.8,159.3,184.1,156.4,184.1,153.3z M52.6,57.1c0-1.4,1.1-2.6,2.5-2.6h87.1c1.4,0,2.5,1.2,2.5,2.6v8.5
	c0,1.4-1.1,2.6-2.5,2.6H55.1c-1.4,0-2.5-1.2-2.5-2.6L52.6,57.1z M52.6,84.3c0-1.4,1.1-2.6,2.5-2.6h87.1c1.4,0,2.5,1.1,2.5,2.6v8.5
	c0,1.4-1.1,2.6-2.5,2.6H55.1c-1.4,0-2.5-1.1-2.5-2.6L52.6,84.3z M156.8,190.8H39.5c-7.3,0-13.2-6.1-13.2-13.6s5.9-13.6,13.2-13.6
	h117.3C156,172.6,156,181.8,156.8,190.8z"/>
</svg>
