<?xml version="1.0" encoding="utf-8"?>
<!-- Generator: Adobe Illustrator 25.0.0, SVG Export Plug-In . SVG Version: 6.00 Build 0)  -->
<svg version="1.1" id="Warstwa_1" xmlns="http://www.w3.org/2000/svg" xmlns:xlink="http://www.w3.org/1999/xlink" x="0px" y="0px"
	 viewBox="0 0 1581.8 1268.2" style="enable-background:new 0 0 1581.8 1268.2;" xml:space="preserve">
<style type="text/css">
	.st0{fill:#FFFFFF;stroke:#000000;stroke-width:29.49;stroke-miterlimit:10;}
	.st1{fill:#666666;stroke:#000000;stroke-width:29.49;stroke-miterlimit:10;}
	.st2{fill:#FFFFFF;stroke:#FFFFFF;stroke-width:32.8766;stroke-miterlimit:10;}
	.st3{fill:none;stroke:#FFFFFF;stroke-width:39.8335;stroke-miterlimit:10;}
</style>
<path class="st0" d="M576.4,966.3c-2.9,0.3-5.7,0.6-8.4,1.1c1.2,0.7,2.4,1.3,3.7,1.9C573.2,968.3,574.7,967.3,576.4,966.3z"/>
<path class="st0" d="M680.5,955.7l-4.3,2.8l0.7,2.8c2.6,1.3,5,2.7,7.4,4.3c0.5-2.3,1.7-4.3,3.5-5.8
	C685.4,958.5,682.9,957.1,680.5,955.7z"/>
<path class="st0" d="M112.2,556.2C79.7,588.6,67.5,625.1,50,675.6c-6,17.4-26.6,45-33.5,75.4c17.9,13.2,26.5,42.3,60,49.2l55.3,11.8
	c0,0,53.6,3.8,69.1-0.5c11.4-3.1,88.5-39.2,122.8-74.1c55.6-56.7,78-152.4,20-210.4c-46.5-46.5-134.6-34.6-187.9-5.1
	C146.1,527.2,129.7,538.7,112.2,556.2z"/>
<path class="st0" d="M1469.6,556.2c32.5,32.5,44.7,68.9,62.2,119.4c6,17.4,26.6,45,33.4,75.4c-17.9,13.2-26.5,42.3-60,49.2
	l-55.3,11.8c0,0-53.6,3.8-69.1-0.5c-11.3-3.1-88.5-39.2-122.8-74.1c-55.6-56.7-78-152.4-20-210.4c46.5-46.5,134.6-34.6,187.9-5.1
	C1435.8,527.2,1452.1,538.7,1469.6,556.2z"/>
<path class="st0" d="M277.7,573.3c-6.8,27.4-10.4,54.9-10.4,81.8c0,160.7,96.8,301.5,242,379.9c2-2.1,4.1-4,6.2-6
	c-3.3-3.2-4.9-8.9-1.2-13.6c3.1-3.9,6.6-7.6,10.3-11c-7.4-4.2-6.2-17.4,4.1-17.2c5.7,0.1,11.4,0.1,17.1,0.1c1.4-1,2.9-2.1,4.3-3.1
	c0.8-1.1,1.6-2.2,2.5-3.2c0.5-0.5,1-1,1.5-1.4c-4.7-3.8-8.5-8.7-10.8-14.3c-1.5-3.6,1-8.8,4.2-10.4c5.7-2.8,11.7-4.9,17.9-6
	c1.1-0.9,2.5-1.6,3.9-1.9c11.8-2.6,23.4-6.1,34.8-10.3c0-0.4,0-0.8-0.1-1.1c-3.6-3.3-3.7-9.7-0.3-13.5c0.3-7.6,12.1-12.5,17.4-4.3
	c0.3,0.5,0.6,1,0.9,1.4c1.6,0.1,3.2,0.2,4.8,0.3c0.4,0,0.8,0.1,1.2,0.1c2.3,0.2,4.6,0.5,6.8,0.8c1.7-5.3,7.8-7.1,12.5-5.3
	c-0.1-2.2-0.2-4.4-0.2-6.6c0-1.7,0.4-3.4,1.3-4.9c-0.1-0.3-0.2-0.7-0.2-1c-0.1-0.4-0.3-0.8-0.4-1.2c-0.4-1.2-0.7-2.4-0.7-3.7
	c0-2.4,1-4.8,2.7-6.5c0.4-0.4,0.9-0.8,1.4-1.2c-0.7-6-1.5-12-2.1-17.9c-1.3-11.8,17.2-11.7,18.4,0c1.4,12.5,2.9,25,3.9,37.4
	c12.8-4.8,26.1-8.4,39.5-10.9c11.6-2,16.6,15.8,4.9,17.8c-15,2.6-29.4,7.1-43.5,12.4c0,0.8,0,1.5,0,2.3l2.8,1.2
	c4.9-1.6,9.8-3.1,14.7-4.5c2-1.2,4.1-2.4,6.2-3.6c10.3-5.7,19.5,9.9,9.5,15.8c-1.2,2-3.1,3.5-5.4,4l-1.9,0.5
	c22.9,14,43.7,32.2,62,50.9c8.3,8.5-4.7,21.5-13,13c-13.4-13.7-28.3-27.3-44.4-38.9c0.7,5.3-1.3,10.7-5.2,14.3
	c0.3,1.5,0.5,3,0.5,4.5c2.3,1.6,4.4,3.5,6.3,5.6c12.2,14,7.2,29.8-3.5,43.2c2,5.5,2.1,11.9-0.7,19.1c-0.5,1.4-1.2,2.7-1.8,4
	c-2.1,11.5-4.8,22.8-8.1,34c27.8,4.1,55.8,6.1,83.9,6.1c26.6,0,1.4,8.4,15,6.8c16.5-2,28.3,7.8,15.7,18.7
	c-97.8,84.3,64.6,21.7,92,20.6c142.9-5.6,69.3-80.2,94.3-92.3C1292,908.8,1281.2,655,1281.2,655c-0.2-185.2-145.6-309-172.8-332
	c-91.1-76.9-198-113.5-334.2-113.5c-119.6,0-203.5,6.9-290.2,67.8c-92.8,65.2-175.5,177.2-205.1,291.4"/>
<path class="st0" d="M278.9,568.8c-0.4,1.5-0.8,3-1.1,4.5"/>
<ellipse cx="576.4" cy="624.5" rx="68.3" ry="105.3"/>
<path class="st1" d="M483.9,277.3c0,0-143.8-28.8-166.6-36.9c-25.1-8.9-70.8-87-63.4-144.5c2.7-20.8,5.7-38,8.4-51.5
	c4.9-23.7,1.7-28.7,1.7-28.7s-3.8-3.8-18.8,2.8c-30.4,13.4-76.8,39.8-79.8,77.3c-4.4,56-2.9,171,10.3,207.9s57.5,144.5,81.1,160.7
	s48,31.3,48,31.3l80.3-122.8L483.9,277.3z"/>
<path class="st1" d="M1064,277.3c0,0,143.8-28.8,166.6-36.9c25.1-8.9,70.8-87,63.4-144.5c-2.7-20.8-5.7-38-8.4-51.5
	c-4.8-23.7-1.7-28.7-1.7-28.7s3.8-3.8,18.8,2.8c30.4,13.4,76.8,39.8,79.8,77.3c4.4,56,2.9,171-10.3,207.9s-57.5,144.5-81.1,160.7
	s-48,31.3-48,31.3l-80.3-122.8L1064,277.3z"/>
<path class="st1" d="M774.2,824.2c-184.6,0-334.2,96.1-334.2,214.6s149.6,214.6,334.2,214.6s334.2-96.1,334.2-214.6
	S958.8,824.2,774.2,824.2z"/>
<ellipse cx="984.9" cy="624.5" rx="68.3" ry="105.3"/>
<ellipse transform="matrix(0.9937 -0.1123 0.1123 0.9937 -69.8478 34.6347)" class="st2" cx="272.5" cy="637.3" rx="117.4" ry="108.3"/>
<ellipse transform="matrix(0.4297 -0.903 0.903 0.4297 182.2988 1545.2804)" class="st2" cx="1314.5" cy="628.3" rx="108.3" ry="117.4"/>
<ellipse transform="matrix(0.866 -0.5 0.5 0.866 -79.4631 628.4235)" class="st3" cx="1132.9" cy="462.5" rx="76.9" ry="169"/>
<ellipse transform="matrix(0.5 -0.866 0.866 0.5 -190.1509 591.6331)" class="st3" cx="417.3" cy="460.5" rx="169" ry="76.9"/>
</svg>
