<?xml version="1.0" encoding="utf-8"?>
<!-- Generator: Adobe Illustrator 25.0.0, SVG Export Plug-In . SVG Version: 6.00 Build 0)  -->
<svg version="1.1" id="Warstwa_1" xmlns="http://www.w3.org/2000/svg" xmlns:xlink="http://www.w3.org/1999/xlink" x="0px" y="0px"
	 viewBox="0 0 184.1 184.3" style="enable-background:new 0 0 184.1 184.3;" xml:space="preserve">
<style type="text/css">
	.st0{fill:#FFFFFF;}
</style>
<path id="Icon_awesome-volleyball-ball" class="st0" d="M82.9,87.5c-0.3-13.5-3.1-26.8-8.4-39.3c-33.4,15.3-58,44.9-67,80.5
	c5,11.4,12.1,21.6,21.1,30.1C37.2,129.1,56.5,103.7,82.9,87.5z M69.2,37.6c-5.7-9.8-12.9-18.7-21.3-26.3
	c-34.9,19-53.6,58.3-46.4,97.4C14.2,77.3,38.4,51.9,69.2,37.6L69.2,37.6z M138.9,98.9c3.4-36.5-9.9-72.7-36.2-98.2
	C90.3-0.8,77.8,0.2,65.9,3.8c21.5,22.3,33.9,51.8,34.7,82.7C112.5,93.1,125.4,97.2,138.9,98.9L138.9,98.9z M92.5,102.4
	c-11.5,7-21.7,16.2-29.8,27c29.9,21.2,67.8,27.8,103.1,17.8c7.4-10,12.8-21.3,15.7-33.4c-9.8,2.5-19.9,3.8-30.1,3.9
	C130.9,117.5,110.6,112.3,92.5,102.4z M56,139.4c-5.6,9.7-9.6,20.3-11.9,31.3c33.8,20.7,77.1,17.4,107.4-8.2
	C117.9,167.2,83.7,158.9,56,139.4L56,139.4L56,139.4z M123,5.5c20.8,26.8,30.7,60.4,27.7,94.2c11.3,0,22.6-1.8,33.3-5.3
	c0-0.7,0.1-1.5,0.1-2.2C184.1,53.3,159.7,18.6,123,5.5z"/>
</svg>
